<svg xmlns="http://www.w3.org/2000/svg"  viewBox="0 0 100 100" width="100px" height="100px" baseProfile="basic"><circle cx="52" cy="52" r="44" opacity=".35"/><circle cx="50" cy="50" r="44" fill="#f2f2f2"/><circle cx="50" cy="50" r="37.5" fill="#fff"/><circle cx="50" cy="50" r="32" fill="#d84178"/><path fill="#40396e" d="M50,89c-21.505,0-39-17.495-39-39s17.495-39,39-39s39,17.495,39,39S71.505,89,50,89z M50,14	c-19.851,0-36,16.149-36,36s16.149,36,36,36s36-16.149,36-36S69.851,14,50,14z"/><path fill="#fff" d="M37.41,47.211c-0.291-0.969-0.737-1.806-1.337-2.514c-0.601-0.707-1.356-1.264-2.267-1.671	c-0.911-0.407-1.976-0.61-3.197-0.61c-1.221,0-2.281,0.203-3.182,0.61c-0.901,0.407-1.647,0.964-2.238,1.671	c-0.591,0.707-1.037,1.545-1.337,2.514c-0.301,0.969-0.45,2.005-0.45,3.109c0,1.104,0.15,2.132,0.45,3.081	c0.3,0.949,0.746,1.778,1.337,2.485c0.591,0.707,1.337,1.26,2.238,1.656c0.901,0.397,1.961,0.596,3.182,0.596	c1.221,0,2.286-0.199,3.197-0.596c0.91-0.397,1.666-0.949,2.267-1.656c0.6-0.707,1.046-1.535,1.337-2.485	c0.291-0.949,0.436-1.976,0.436-3.081C37.846,49.216,37.701,48.18,37.41,47.211z M32.949,53.794C32.474,54.598,31.694,55,30.61,55	c-1.066,0-1.836-0.402-2.31-1.206c-0.475-0.804-0.712-1.962-0.712-3.473s0.237-2.669,0.712-3.473	c0.474-0.804,1.245-1.206,2.31-1.206c1.085,0,1.865,0.402,2.34,1.206c0.474,0.804,0.712,1.962,0.712,3.473	S33.424,52.99,32.949,53.794z"/><path fill="#fff" d="M44.007,51.251c-1.085-0.31-1.933-0.77-2.543-1.38c-0.61-0.61-0.916-1.526-0.916-2.746	c0-1.472,0.528-2.625,1.584-3.458c1.056-0.833,2.494-1.25,4.316-1.25c0.756,0,1.501,0.068,2.238,0.203	c0.736,0.136,1.482,0.339,2.238,0.61c-0.039,0.504-0.136,1.027-0.29,1.569c-0.155,0.543-0.339,1.017-0.552,1.424	c-0.465-0.193-0.979-0.363-1.54-0.509c-0.562-0.145-1.153-0.218-1.773-0.218c-0.659,0-1.172,0.102-1.54,0.305	c-0.368,0.203-0.552,0.528-0.552,0.974c0,0.426,0.131,0.727,0.392,0.901c0.262,0.174,0.634,0.339,1.119,0.494l1.657,0.494	c0.542,0.155,1.032,0.344,1.467,0.567c0.436,0.223,0.809,0.499,1.119,0.828c0.31,0.33,0.552,0.737,0.727,1.221	c0.174,0.485,0.262,1.075,0.262,1.773c0,0.717-0.15,1.386-0.451,2.005c-0.3,0.62-0.737,1.158-1.308,1.613	c-0.572,0.455-1.264,0.814-2.078,1.075c-0.814,0.262-1.734,0.392-2.761,0.392c-0.465,0-0.891-0.015-1.279-0.044	c-0.388-0.029-0.761-0.078-1.119-0.145c-0.359-0.068-0.712-0.15-1.061-0.247c-0.349-0.097-0.726-0.222-1.133-0.378	c0.039-0.523,0.131-1.051,0.276-1.584c0.145-0.532,0.334-1.051,0.567-1.555c0.639,0.252,1.245,0.441,1.816,0.567	c0.571,0.126,1.167,0.189,1.787,0.189c0.271,0,0.567-0.024,0.886-0.073c0.32-0.048,0.615-0.135,0.886-0.262	c0.271-0.126,0.499-0.291,0.683-0.494c0.184-0.203,0.276-0.469,0.276-0.799c0-0.465-0.141-0.799-0.421-1.003	c-0.281-0.203-0.674-0.382-1.177-0.538L44.007,51.251z"/><path fill="#fff" d="M54.207,42.765c0.698-0.116,1.385-0.175,2.063-0.175c0.678,0,1.366,0.058,2.063,0.175v7.963	c0,0.795,0.063,1.448,0.189,1.962c0.126,0.513,0.32,0.92,0.581,1.221c0.262,0.3,0.586,0.513,0.973,0.639	c0.387,0.126,0.843,0.189,1.366,0.189c0.717,0,1.317-0.068,1.802-0.203v-11.77c0.698-0.116,1.375-0.175,2.034-0.175	c0.678,0,1.366,0.058,2.063,0.175v14.443c-0.62,0.213-1.438,0.421-2.456,0.625c-1.017,0.204-2.078,0.305-3.182,0.305	c-0.988,0-1.938-0.078-2.848-0.232c-0.911-0.155-1.71-0.484-2.397-0.988c-0.688-0.504-1.235-1.24-1.642-2.209	c-0.407-0.968-0.61-2.257-0.61-3.865V42.765z"/><path fill="#fff" d="M71.266,57.79c-0.116-0.717-0.175-1.424-0.175-2.122c0-0.697,0.058-1.414,0.175-2.151	c0.717-0.116,1.424-0.174,2.121-0.174c0.698,0,1.414,0.058,2.151,0.174c0.116,0.737,0.174,1.444,0.174,2.122	c0,0.717-0.058,1.434-0.174,2.151c-0.736,0.116-1.443,0.174-2.122,0.174C72.699,57.964,71.982,57.906,71.266,57.79z"/><path fill="#fff" d="M71.149,36.895c0.755-0.116,1.501-0.175,2.238-0.175c0.756,0,1.511,0.058,2.267,0.175l-0.291,14.211	c-0.679,0.116-1.327,0.174-1.947,0.174c-0.659,0-1.318-0.058-1.976-0.174L71.149,36.895z"/></svg>